<?xml version="1.0" encoding="UTF-8" standalone="no"?>
<svg
   xmlns:dc="http://purl.org/dc/elements/1.1/"
   xmlns:cc="http://creativecommons.org/ns#"
   xmlns:rdf="http://www.w3.org/1999/02/22-rdf-syntax-ns#"
   xmlns:svg="http://www.w3.org/2000/svg"
   xmlns="http://www.w3.org/2000/svg"
   viewBox="0 0 2560 1440"
   height="1440"
   width="2560"
   xml:space="preserve"
   id="svg2"
   version="1.1"><metadata
     id="metadata8"><rdf:RDF><cc:Work
         rdf:about=""><dc:format>image/svg+xml</dc:format><dc:type
           rdf:resource="http://purl.org/dc/dcmitype/StillImage" /></cc:Work></rdf:RDF></metadata><defs
     id="defs6"><clipPath
       id="clipPath20"
       clipPathUnits="userSpaceOnUse"><path
         id="path18"
         d="M 0,1080 H 1920 V 0 H 0 Z" /></clipPath><clipPath
       id="clipPath100"
       clipPathUnits="userSpaceOnUse"><path
         id="path98"
         d="M 1159.83,662.025 H 1283.5 V 584.102 H 1159.83 Z" /></clipPath></defs><g
     transform="matrix(1.3333333,0,0,-1.3333333,0,1440)"
     id="g10"><path
       id="path12"
       style="fill:#170d39;fill-opacity:1;fill-rule:nonzero;stroke:none"
       d="M 0,0 H 1920 V 1080 H 0 Z" /><g
       id="g14"><g
         clip-path="url(#clipPath20)"
         id="g16"><g
           transform="translate(1257.8254,641.8573)"
           id="g22"><path
             id="path24"
             style="fill:#f4b049;fill-opacity:1;fill-rule:nonzero;stroke:none"
             d="M 0,0 C -0.176,0.233 -0.363,0.457 -0.557,0.677 -1.132,1.33 -1.618,2.062 -1.975,2.86 -2.378,3.764 -2.81,4.598 -3.368,5.402 c -0.563,0.812 -1.008,1.703 -1.274,2.652 -0.02,0.071 -0.04,0.142 -0.061,0.213 -0.579,1.955 -3.879,8.432 -8.936,8.334 -4.983,-0.098 -6.158,4.937 -11.086,4.709 -1.192,-0.055 -2.431,0.927 -3.701,0.964 -0.761,0.023 -1.48,-0.09 -2.182,-0.264 -1.905,-0.473 -3.923,-0.352 -5.873,0.196 -0.083,0.024 -0.167,0.046 -0.251,0.066 -5.789,1.394 -10.296,-2.531 -15.011,-4.851 -1.983,-0.975 -7.076,-0.564 -10.144,-6.736 -0.993,-2 -7.236,-1.597 -8.69,-6.692 -0.484,-1.697 -1.17,-4.205 -3.9,-7.878 -1.607,-2.164 -0.383,-3.913 -0.479,-6.334 -0.105,-2.644 -1.829,-4.075 -1.084,-7.009 0.754,-2.971 1.941,-4.852 1.878,-8.072 -0.051,-2.592 -0.349,-4.856 0.782,-7.309 1.084,-2.352 2.244,-5.59 3.835,-7.608 1.734,-2.2 4.461,-4.374 6.655,-6.081 2.448,-1.905 3.795,-4.763 6.094,-6.812 1.403,-1.25 3.282,-1.566 4.955,-2.196 1.815,-0.683 3.345,-1.853 5.093,-2.605 2.837,-1.219 5.195,-0.364 7.945,-0.033 4.65,0.561 9.756,-1.066 14.06,0.789 2.22,0.957 3.997,2.872 6.553,2.654 3.716,-0.318 5.669,0.671 8.349,3.555 1.713,1.843 3.132,2.563 5.219,3.861 2.261,1.406 4.124,4.651 5.759,6.827 1.812,2.411 3.588,5.361 4.261,8.39 0.252,1.136 0.833,2.523 0.875,3.817 0.02,0.604 0.078,1.204 0.219,1.781 0.518,2.114 0.476,4.445 -0.093,6.509 -0.582,2.109 -1.426,3.416 -1.406,5.6 0.015,1.657 0.111,3.388 0.181,5.099 C 5.344,-4.935 2.24,-2.961 0,0" /></g><g
           transform="translate(1244.5151,601.1321)"
           id="g26"><path
             id="path28"
             style="fill:#d3913a;fill-opacity:1;fill-rule:nonzero;stroke:none"
             d="m 0,0 c -1.766,-0.929 -4.043,-1.448 -3.96,-3.588 0.076,-1.975 -0.578,-3.307 -2.42,-3.947 -1.974,-0.685 -6.732,-1.596 -8.357,-3.969 -0.692,-0.136 -1.379,-0.363 -2.061,-0.739 -2.267,-1.249 -4.477,-2.617 -7.108,-3.089 -3.298,-0.591 -6.259,1.035 -9.455,2.032 -1.332,0.415 -2.45,0.884 -3.806,1.069 -1.862,0.254 -2.599,-0.596 -4.368,-0.895 -0.312,-0.053 -0.582,-0.062 -0.825,-0.038 1.199,-0.647 2.572,-0.944 3.829,-1.417 1.815,-0.682 3.345,-1.853 5.093,-2.604 2.837,-1.22 5.195,-0.365 7.945,-0.034 4.65,0.561 9.756,-1.065 14.06,0.789 2.22,0.958 3.997,2.872 6.553,2.654 3.716,-0.318 5.67,0.671 8.35,3.555 1.713,1.843 3.131,2.563 5.218,3.861 2.261,1.406 4.124,4.651 5.76,6.827 1.812,2.411 3.587,5.361 4.26,8.39 0.252,1.136 0.834,2.523 0.875,3.817 0.02,0.604 0.078,1.204 0.219,1.781 0.518,2.114 0.476,4.445 -0.093,6.509 -0.581,2.109 -1.425,3.416 -1.405,5.6 0.015,1.657 0.11,3.389 0.181,5.1 0.169,4.126 -2.934,6.101 -5.175,9.061 -0.175,0.232 -0.361,0.456 -0.554,0.675 -0.576,0.653 -1.063,1.386 -1.42,2.186 -0.408,0.913 -0.846,1.756 -1.413,2.569 -0.552,0.79 -0.988,1.66 -1.245,2.587 -0.023,0.083 -0.046,0.167 -0.071,0.25 -0.579,1.956 -3.879,8.433 -8.935,8.334 -1.616,-0.032 -2.831,0.476 -3.903,1.169 0.701,-3.005 1.852,-5.452 4.933,-7.431 1.478,-0.95 3.192,-1.966 4.366,-3.426 1.454,-1.807 0.456,-3.034 0.937,-4.982 0.727,-2.949 3.873,-3.819 5.153,-6.355 0.509,-1.008 0.141,-1.16 0.115,-1.478 C 11.163,33.459 9.939,32.333 9.347,31.114 8.803,29.995 5.689,26.059 5.707,23.793 5.724,21.634 7.001,19.807 7.796,17.863 8.574,15.961 7.908,14.273 8.695,12.312 8.951,11.674 9.309,11.756 9.171,10.827 9.21,10.649 9.066,10.209 8.85,10.014 7.754,9.025 7.111,7.751 6.77,6.325 6.489,5.149 5.776,4.169 4.773,3.596 4.767,3.593 0.006,0.003 0,0" /></g><g
           transform="translate(1219.673,664.3707)"
           id="g30"><path
             id="path32"
             style="fill:#fdc880;fill-opacity:1;fill-rule:nonzero;stroke:none"
             d="m 0,0 c 0,0 -0.192,0.029 -0.312,0.034 -4.839,0.187 -8.719,-2.961 -12.866,-5.001 -1.983,-0.976 -7.076,-0.565 -10.143,-6.737 -0.994,-1.999 -7.237,-1.597 -8.691,-6.692 -0.484,-1.696 -1.17,-4.205 -3.899,-7.878 -1.608,-2.163 -0.384,-3.913 -0.48,-6.334 -0.104,-2.644 -1.829,-4.075 -1.084,-7.009 0.754,-2.971 2.006,-4.853 1.878,-8.072 -0.102,-2.584 -0.349,-4.856 0.782,-7.309 1.084,-2.352 2.245,-5.589 3.836,-7.608 1.285,-1.631 3.116,-3.247 4.872,-4.67 -0.907,1.667 -2.026,3.472 -2.906,5.037 -1.228,2.183 -3.069,3.97 -4.222,6.211 -1.072,2.085 -0.634,3.973 -0.513,6.154 0.107,1.928 -0.138,4.063 -0.271,6.016 -0.149,2.183 -0.856,4.828 -0.385,6.933 0.385,1.717 1.07,2.937 0.499,4.872 -0.459,1.553 -0.835,2.604 -0.279,4.13 0.882,2.42 2.596,4.81 3.916,6.951 0.95,1.541 2.455,3.462 3.779,4.673 1.235,1.129 3.126,0.772 4.57,1.508 2.007,1.022 2.309,3.235 3.546,4.951 1.021,1.415 2.426,2.055 4.093,2.245 2.188,0.249 4.399,0.652 6.397,1.567 2.429,1.112 4.642,3.192 6.672,4.911 C -0.82,-0.786 0,0 0,0" /></g><g
           transform="translate(1206.478,643.4371)"
           id="g34"><path
             id="path36"
             style="fill:#6b3214;fill-opacity:1;fill-rule:nonzero;stroke:none"
             d="M 0,0 C 4.145,2.604 -2.57,8.677 -4.286,7.018 -5.507,5.837 -6.368,1.755 -5.082,0.164 -4.031,-1.137 -1.365,-0.857 0,0" /></g><g
           transform="translate(1217.2675,637.4083)"
           id="g38"><path
             id="path40"
             style="fill:#6b3214;fill-opacity:1;fill-rule:nonzero;stroke:none"
             d="M 0,0 C 1.965,0.12 3.358,1.747 3.817,3.628 4.231,5.321 0.063,9.522 -2.655,8.308 -2.819,8.234 -2.972,8.135 -3.113,8.021 L -3.127,8.01 C -3.848,7.43 -4.169,6.45 -3.953,5.479 -3.409,3.037 -2.472,-0.151 0,0" /></g><g
           transform="translate(1223.0542,647.3076)"
           id="g42"><path
             id="path44"
             style="fill:#6b3214;fill-opacity:1;fill-rule:nonzero;stroke:none"
             d="m 0,0 c 3.493,0.557 0.673,3.95 -1.933,3.894 l -0.04,0.004 C -2.927,3.984 -3.838,3.524 -4.271,2.663 -4.557,2.096 -4.621,1.445 -4.259,0.836 -3.472,-0.493 -1.228,-0.196 0,0" /></g><g
           transform="translate(1204.5731,598.944)"
           id="g46"><path
             id="path48"
             style="fill:#6b3214;fill-opacity:1;fill-rule:nonzero;stroke:none"
             d="M 0,0 C 0.576,0.967 0.135,2.248 -0.468,3.23 -1.546,4.985 -2.758,5.238 -3.844,3.939 -6.829,0.367 -2.033,-3.413 0,0" /></g><g
           transform="translate(1193.9606,624.0535)"
           id="g50"><path
             id="path52"
             style="fill:#6b3214;fill-opacity:1;fill-rule:nonzero;stroke:none"
             d="m 0,0 c 1.555,0.709 2.921,0.767 2.515,2.555 -0.226,1 -2.86,2.371 -3.024,2.397 L -0.521,4.954 C -1.095,5.048 -1.644,4.771 -1.906,4.251 -3.255,1.579 -4.283,-1.953 0,0" /></g><g
           transform="translate(1235.9821,604.5717)"
           id="g54"><path
             id="path56"
             style="fill:#6b3214;fill-opacity:1;fill-rule:nonzero;stroke:none"
             d="M 0,0 C 2.214,-0.726 4.694,-1.376 5.63,-0.338 7.154,1.351 4.299,7.003 2.77,8.04 1.734,8.742 -0.486,9.06 -1.684,8.503 -2.458,8.143 -2.902,6.788 -3.156,5.332 -3.555,3.045 -2.178,0.714 0,0" /></g><g
           transform="translate(1237.5867,621.6825)"
           id="g58"><path
             id="path60"
             style="fill:#6b3214;fill-opacity:1;fill-rule:nonzero;stroke:none"
             d="m 0,0 c -0.398,-1.533 -0.514,-3.174 0.019,-4.008 1.057,-1.654 4.619,-0.923 5.95,0.103 1.093,0.843 2.785,3.671 2.37,5.158 C 7.927,2.728 6.281,3.241 4.713,3.382 2.514,3.579 0.568,2.188 0,0" /></g><g
           transform="translate(1207.7743,603.2385)"
           id="g62"><path
             id="path64"
             style="fill:#6b3214;fill-opacity:1;fill-rule:nonzero;stroke:none"
             d="M 0,0 C 0.976,-1.555 4.397,-1.08 5.611,-0.493 9.138,1.215 2.711,9.58 1.062,5.987 0.522,4.812 -0.799,1.274 0,0" /></g><g
           transform="translate(1204.41,610.3593)"
           id="g66"><path
             id="path68"
             style="fill:#6b3214;fill-opacity:1;fill-rule:nonzero;stroke:none"
             d="M 0,0 C 2.547,0.93 1.446,5.404 -1.124,4.024 -1.185,3.992 -1.249,3.963 -1.314,3.941 L -1.326,3.938 C -1.799,3.786 -2.113,3.328 -2.091,2.798 -2.037,1.417 -2.721,-0.994 0,0" /></g><g
           transform="translate(1234.1088,594.5836)"
           id="g70"><path
             id="path72"
             style="fill:#6b3214;fill-opacity:1;fill-rule:nonzero;stroke:none"
             d="M 0,0 C 3.446,1.582 0.6,4.615 -1.8,5.634 -1.894,5.673 -1.99,5.699 -2.089,5.715 L -2.107,5.718 C -2.94,5.854 -3.624,5.144 -3.503,4.269 -3.17,1.855 -2.801,-1.286 0,0" /></g><g
           transform="translate(1250.2681,624.5277)"
           id="g74"><path
             id="path76"
             style="fill:#6b3214;fill-opacity:1;fill-rule:nonzero;stroke:none"
             d="m 0,0 c -1.72,-2.094 -2.178,-4.809 1.641,-4.331 2.544,0.317 3.31,1.061 3.276,2.308 C 4.844,0.634 1.6,1.948 0,0" /></g><g
           transform="translate(1243.5613,635.0789)"
           id="g78"><path
             id="path80"
             style="fill:#6b3214;fill-opacity:1;fill-rule:nonzero;stroke:none"
             d="M 0,0 C 0.081,-0.075 0.163,-0.153 0.243,-0.233 1.297,-1.283 2.212,-2.538 3.279,-0.549 4.239,1.241 2.793,2.044 0.976,2.391 -0.338,2.642 -1.025,0.945 0,0" /></g><g
           transform="translate(1239.5769,647.506)"
           id="g82"><path
             id="path84"
             style="fill:#6b3214;fill-opacity:1;fill-rule:nonzero;stroke:none"
             d="M 0,0 C 1.07,0.818 0.851,2.033 0.05,2.889 -1.024,4.038 -2.824,3.357 -2.886,1.806 -2.964,-0.163 -2.579,-1.973 0,0" /></g><g
           transform="translate(1217.0826,630.1851)"
           id="g86"><path
             id="path88"
             style="fill:#6b3214;fill-opacity:1;fill-rule:nonzero;stroke:none"
             d="M 0,0 C -1.55,1.363 -3.023,-2.875 -2.419,-4.87 -2.14,-5.791 -0.588,-6.219 0.81,-6.364 3.15,-6.608 1.284,-1.13 0,0" /></g><g
           transform="translate(1221.8374,622.8601)"
           id="g90"><path
             id="path92"
             style="fill:#6b3214;fill-opacity:1;fill-rule:nonzero;stroke:none"
             d="M 0,0 C 0.006,-0.05 0.013,-0.101 0.021,-0.152 0.299,-1.845 1.9,-2.829 4.26,-0.865 4.8,-0.416 4.43,0.466 3.882,1.279 2.583,3.206 -0.259,2.289 0,0" /></g><g
           id="g94"><g
             id="g96" /><g
             id="g108"><g
               style="opacity:0.75"
               id="g106"
               clip-path="url(#clipPath100)"><g
                 id="g104"
                 transform="translate(1282.9844,659.4429)"><path
                   id="path102"
                   style="fill:#fff5ef;fill-opacity:1;fill-rule:nonzero;stroke:none"
                   d="m 0,0 v 0 c -1.189,2.223 -4.042,2.999 -8.724,2.373 -3.828,-0.511 -16.009,-3.685 -22.165,-5.952 -1.82,-0.671 -0.278,-0.039 -1.82,-0.671 0.843,-1.029 1.272,-1.689 1.752,-2.53 -0.065,-0.012 0.083,0.035 0.086,0.036 6.891,4.237 25.936,9.056 25.065,2.014 -0.133,-1.08 1.015,-4.101 -12.072,-14.977 -9.532,-7.921 -22.482,-17.621 -37.369,-26.259 -14.886,-8.638 -29.582,-15.54 -41.38,-19.434 -14.014,-4.626 -18.514,-3.204 -19.066,-2.265 -0.552,0.938 5.332,10.482 16.272,20.335 0.03,0.028 0.063,0.056 0.094,0.084 -0.115,1.431 -0.05,1.844 0.002,4.144 -1.257,-1.02 -1.924,-1.628 -3.078,-2.618 -5.056,-4.337 -15.237,-14.766 -17.636,-17.948 -2.936,-3.894 -3.785,-6.867 -2.596,-9.09 1.188,-2.223 4.042,-3 8.724,-2.373 3.827,0.511 8.882,1.94 15.024,4.246 12.477,4.684 28.187,12.509 44.238,22.032 14.213,8.432 27.205,17.313 37.125,25.354 1.283,1.04 2.516,2.067 3.693,3.077 5.055,4.337 8.836,8.15 11.235,11.333 C 0.339,-5.196 1.188,-2.223 0,0" /></g></g></g></g><g
           transform="translate(755.289,428.837)"
           id="g110"><path
             id="path112"
             style="fill:#fef5ef;fill-opacity:1;fill-rule:nonzero;stroke:none"
             d="M 0,0 C 0.47,-0.088 0.963,-0.184 1.478,-0.286 1.992,-0.39 2.455,-0.529 2.867,-0.705 3.278,-0.882 3.602,-1.125 3.838,-1.434 4.073,-1.742 4.161,-2.132 4.103,-2.603 3.955,-3.809 3.602,-4.89 3.044,-5.845 2.484,-6.801 1.793,-7.631 0.971,-8.337 c -1.324,-1.177 -2.787,-1.919 -4.39,-2.227 -1.603,-0.309 -3.198,-0.228 -4.786,0.242 -0.794,0.235 -1.537,0.558 -2.228,0.97 -0.691,0.412 -1.345,0.883 -1.963,1.413 -1.235,1.117 -2.191,2.455 -2.867,4.013 -0.676,1.559 -1.051,3.176 -1.125,4.853 -0.073,1.676 0.147,3.344 0.662,5.007 0.514,1.661 1.33,3.168 2.448,4.521 0.911,1.117 2.029,2.022 3.353,2.713 1.323,0.69 2.705,1.103 4.146,1.234 1.441,0.133 2.852,-0.044 4.235,-0.529 1.382,-0.485 2.587,-1.345 3.617,-2.58 C 2.396,10.881 2.728,10.352 3.065,9.705 3.403,9.058 3.573,8.426 3.573,7.808 3.573,7.396 3.463,7.021 3.242,6.684 3.021,6.345 2.735,6.051 2.382,5.801 2.029,5.551 1.646,5.345 1.235,5.184 0.823,5.021 0.441,4.911 0.088,4.853 -0.677,4.765 -1.213,4.765 -1.522,4.853 -1.831,4.94 -2.015,5.161 -2.073,5.515 -2.191,6.309 -2.426,6.94 -2.779,7.411 -3.132,7.881 -3.544,8.197 -4.015,8.359 -4.485,8.521 -4.985,8.543 -5.514,8.426 -6.043,8.308 -6.544,8.072 -7.014,7.72 -7.749,7.22 -8.33,6.521 -8.756,5.624 -9.183,4.728 -9.44,3.757 -9.528,2.713 -9.616,1.669 -9.55,0.64 -9.33,-0.375 c 0.221,-1.015 0.61,-1.874 1.169,-2.58 0.53,-0.677 1.118,-1.081 1.765,-1.213 0.646,-0.133 1.271,-0.066 1.875,0.198 0.602,0.265 1.146,0.684 1.631,1.257 0.486,0.573 0.861,1.213 1.125,1.919 0.147,0.412 0.382,0.662 0.706,0.75 C -0.735,0.044 -0.383,0.059 0,0" /></g><g
           transform="translate(773.9921,435.8956)"
           id="g114"><path
             id="path116"
             style="fill:#fef5ef;fill-opacity:1;fill-rule:nonzero;stroke:none"
             d="m 0,0 c -0.677,0 -1.301,-0.148 -1.875,-0.441 -0.573,-0.295 -1.066,-0.7 -1.478,-1.213 -0.412,-0.516 -0.743,-1.111 -0.992,-1.787 -0.25,-0.677 -0.375,-1.397 -0.375,-2.162 0,-0.765 0.125,-1.493 0.375,-2.183 0.249,-0.692 0.58,-1.287 0.992,-1.786 0.412,-0.501 0.905,-0.898 1.478,-1.192 0.574,-0.294 1.198,-0.441 1.875,-0.441 0.646,0 1.264,0.147 1.853,0.441 0.587,0.294 1.095,0.691 1.522,1.192 0.426,0.499 0.764,1.094 1.014,1.786 0.25,0.69 0.375,1.418 0.375,2.183 0,0.765 -0.125,1.485 -0.375,2.162 C 4.139,-2.765 3.801,-2.17 3.375,-1.654 2.948,-1.141 2.44,-0.736 1.853,-0.441 1.264,-0.148 0.646,0 0,0 m 0,-17.777 c -1.529,0 -2.963,0.323 -4.301,0.97 -1.339,0.647 -2.508,1.522 -3.507,2.624 -1,1.103 -1.794,2.389 -2.381,3.861 -0.589,1.469 -0.883,3.043 -0.883,4.719 0,1.676 0.294,3.249 0.883,4.72 0.587,1.471 1.381,2.757 2.381,3.861 0.999,1.102 2.168,1.969 3.507,2.602 1.338,0.632 2.772,0.948 4.301,0.948 1.529,0 2.962,-0.316 4.301,-0.948 1.338,-0.633 2.507,-1.5 3.507,-2.602 0.999,-1.104 1.794,-2.39 2.382,-3.861 0.588,-1.471 0.882,-3.044 0.882,-4.72 0,-1.676 -0.294,-3.25 -0.882,-4.719 -0.588,-1.472 -1.383,-2.758 -2.382,-3.861 -1,-1.102 -2.169,-1.977 -3.507,-2.624 -1.339,-0.647 -2.772,-0.97 -4.301,-0.97" /></g><g
           transform="translate(799.0478,435.8956)"
           id="g118"><path
             id="path120"
             style="fill:#fef5ef;fill-opacity:1;fill-rule:nonzero;stroke:none"
             d="m 0,0 c -0.677,0 -1.301,-0.148 -1.875,-0.441 -0.573,-0.295 -1.066,-0.7 -1.478,-1.213 -0.412,-0.516 -0.743,-1.111 -0.992,-1.787 -0.25,-0.677 -0.375,-1.397 -0.375,-2.162 0,-0.765 0.125,-1.493 0.375,-2.183 0.249,-0.692 0.58,-1.287 0.992,-1.786 0.412,-0.501 0.905,-0.898 1.478,-1.192 0.574,-0.294 1.198,-0.441 1.875,-0.441 0.646,0 1.264,0.147 1.853,0.441 0.587,0.294 1.095,0.691 1.522,1.192 0.426,0.499 0.764,1.094 1.014,1.786 0.25,0.69 0.375,1.418 0.375,2.183 0,0.765 -0.125,1.485 -0.375,2.162 C 4.139,-2.765 3.801,-2.17 3.375,-1.654 2.948,-1.141 2.44,-0.736 1.853,-0.441 1.264,-0.148 0.646,0 0,0 m 0,-17.777 c -1.529,0 -2.963,0.323 -4.301,0.97 -1.339,0.647 -2.508,1.522 -3.507,2.624 -1,1.103 -1.794,2.389 -2.381,3.861 -0.589,1.469 -0.883,3.043 -0.883,4.719 0,1.676 0.294,3.249 0.883,4.72 0.587,1.471 1.381,2.757 2.381,3.861 0.999,1.102 2.168,1.969 3.507,2.602 1.338,0.632 2.772,0.948 4.301,0.948 1.529,0 2.962,-0.316 4.301,-0.948 1.338,-0.633 2.507,-1.5 3.507,-2.602 0.999,-1.104 1.794,-2.39 2.382,-3.861 0.588,-1.471 0.882,-3.044 0.882,-4.72 0,-1.676 -0.294,-3.25 -0.882,-4.719 -0.588,-1.472 -1.383,-2.758 -2.382,-3.861 -1,-1.102 -2.169,-1.977 -3.507,-2.624 -1.339,-0.647 -2.772,-0.97 -4.301,-0.97" /></g><g
           transform="translate(834.6904,438.5421)"
           id="g122"><path
             id="path124"
             style="fill:#fef5ef;fill-opacity:1;fill-rule:nonzero;stroke:none"
             d="m 0,0 c -0.383,-0.706 -0.876,-1.346 -1.478,-1.919 -0.603,-0.573 -1.251,-1.11 -1.941,-1.61 -0.691,-0.5 -1.405,-0.986 -2.14,-1.456 C -6.294,-5.456 -7,-5.94 -7.676,-6.44 c 1.147,-1.588 2.405,-3.214 3.772,-4.874 1.367,-1.663 2.757,-3.155 4.169,-4.478 0.088,-0.147 0.131,-0.324 0.131,-0.529 0,-0.177 -0.051,-0.406 -0.154,-0.684 -0.103,-0.28 -0.316,-0.626 -0.639,-1.037 -0.324,-0.383 -0.662,-0.779 -1.015,-1.191 -0.353,-0.413 -0.713,-0.772 -1.081,-1.08 -0.367,-0.309 -0.721,-0.53 -1.058,-0.663 -0.339,-0.131 -0.655,-0.125 -0.949,0.023 -0.353,0.176 -0.779,0.529 -1.279,1.058 -0.5,0.53 -1.036,1.147 -1.61,1.853 -0.573,0.706 -1.162,1.484 -1.764,2.338 -0.604,0.852 -1.177,1.677 -1.721,2.471 -0.544,0.794 -1.044,1.544 -1.5,2.249 -0.456,0.706 -0.815,1.279 -1.08,1.72 -0.089,-0.029 -0.17,-0.059 -0.243,-0.088 -0.074,-0.03 -0.14,-0.059 -0.199,-0.088 v -8.911 c -0.059,-0.353 -0.162,-0.676 -0.308,-0.97 -0.148,-0.265 -0.368,-0.515 -0.662,-0.75 -0.294,-0.236 -0.692,-0.382 -1.191,-0.442 -0.529,-0.028 -1.066,-0.05 -1.61,-0.065 -0.545,-0.015 -1.052,0.044 -1.522,0.176 -0.471,0.132 -0.875,0.368 -1.213,0.706 -0.338,0.338 -0.551,0.844 -0.64,1.522 -0.029,0.176 -0.044,0.441 -0.044,0.794 v 1.279 c 0,4.587 0.051,9.16 0.154,13.719 0.103,4.558 0.228,9.159 0.375,13.807 0.03,0.235 0.103,0.441 0.221,0.617 0.117,0.147 0.287,0.294 0.507,0.441 0.221,0.147 0.537,0.249 0.949,0.309 0.411,0.029 0.889,0.051 1.434,0.066 0.544,0.015 1.058,-0.007 1.544,-0.066 0.485,-0.06 0.904,-0.176 1.256,-0.353 0.354,-0.176 0.544,-0.441 0.574,-0.793 0.029,-2.354 0.058,-4.699 0.089,-7.037 0.028,-2.338 0.044,-4.683 0.044,-7.036 1.5,0.911 2.925,1.905 4.278,2.978 1.352,1.073 2.647,2.286 3.882,3.639 0.412,0.412 0.823,0.655 1.235,0.728 0.412,0.073 0.911,-0.096 1.5,-0.507 0.235,-0.147 0.566,-0.39 0.992,-0.728 C -1.625,3.345 -1.229,2.962 -0.86,2.536 -0.493,2.109 -0.206,1.676 0,1.235 0.205,0.794 0.205,0.382 0,0" /></g><g
           transform="translate(846.4677,444.1437)"
           id="g126"><path
             id="path128"
             style="fill:#fef5ef;fill-opacity:1;fill-rule:nonzero;stroke:none"
             d="m 0,0 c 0,-0.765 -0.316,-1.419 -0.948,-1.963 -0.633,-0.544 -1.39,-0.815 -2.272,-0.815 -0.883,0 -1.639,0.271 -2.272,0.815 -0.633,0.544 -0.948,1.198 -0.948,1.963 0,0.794 0.315,1.471 0.948,2.029 0.633,0.559 1.389,0.838 2.272,0.838 0.882,0 1.639,-0.279 2.272,-0.838 C -0.316,1.471 0,0.794 0,0 m -0.441,-5.822 c -0.059,-3.117 -0.088,-6.213 -0.088,-9.285 0,-3.075 0.044,-6.155 0.133,-9.243 -0.06,-0.206 -0.163,-0.412 -0.31,-0.617 -0.147,-0.177 -0.36,-0.352 -0.639,-0.529 -0.28,-0.177 -0.67,-0.294 -1.169,-0.354 -0.501,-0.058 -1.022,-0.094 -1.566,-0.109 -0.545,-0.015 -1.052,0.007 -1.522,0.065 -0.471,0.06 -0.876,0.192 -1.213,0.398 -0.338,0.205 -0.551,0.514 -0.64,0.926 -0.059,0.206 -0.096,0.633 -0.11,1.279 -0.015,0.646 -0.015,1.427 0,2.338 0.014,0.911 0.044,1.919 0.088,3.022 0.044,1.103 0.111,2.212 0.199,3.33 0.058,1.118 0.125,2.205 0.198,3.265 0.073,1.059 0.14,1.999 0.199,2.822 0.088,0.971 0.176,1.868 0.265,2.692 -0.03,0.176 0.014,0.323 0.132,0.441 0.088,0.117 0.227,0.213 0.419,0.286 0.191,0.074 0.492,0.111 0.904,0.111 h 1.412 c 0.529,0 1.036,-0.022 1.521,-0.067 0.486,-0.044 0.905,-0.125 1.258,-0.242 0.353,-0.118 0.529,-0.294 0.529,-0.529" /></g><g
           transform="translate(857.893,434.6163)"
           id="g130"><path
             id="path132"
             style="fill:#fef5ef;fill-opacity:1;fill-rule:nonzero;stroke:none"
             d="M 0,0 C 2.087,0 4.191,0.044 6.308,0.132 6.161,1.103 5.815,1.801 5.271,2.228 4.727,2.653 4.125,2.837 3.462,2.778 2.801,2.72 2.146,2.448 1.5,1.963 0.853,1.478 0.353,0.822 0,0 M -0.132,7.366 C 1.661,7.896 3.375,8.021 5.006,7.741 6.639,7.461 8.05,6.859 9.242,5.933 10.432,5.006 11.351,3.771 11.999,2.228 12.645,0.684 12.866,-1.074 12.66,-3.044 12.601,-3.427 12.498,-3.75 12.351,-4.015 12.204,-4.279 11.969,-4.441 11.646,-4.5 11.498,-4.56 11.189,-4.604 10.719,-4.633 10.249,-4.662 9.683,-4.677 9.021,-4.677 c -0.662,0 -1.39,0.007 -2.184,0.022 -0.794,0.014 -1.587,0.037 -2.381,0.067 -1.089,0.059 -2.104,0.103 -3.044,0.132 -0.942,0.029 -1.706,0.073 -2.294,0.133 -0.03,-0.712 0.022,-1.408 0.154,-2.089 0.133,-0.682 0.36,-1.297 0.684,-1.845 0.323,-0.548 0.75,-0.999 1.279,-1.355 0.529,-0.356 1.191,-0.563 1.985,-0.622 0.617,-0.06 1.236,0.059 1.853,0.355 0.617,0.297 1.176,0.801 1.676,1.512 0.382,0.593 0.867,0.948 1.456,1.067 0.587,0.118 1.161,0.066 1.72,-0.156 0.558,-0.222 1.029,-0.585 1.411,-1.089 0.382,-0.504 0.574,-1.081 0.574,-1.733 0,-0.794 -0.213,-1.523 -0.639,-2.184 -0.427,-0.662 -0.964,-1.25 -1.61,-1.765 -0.648,-0.514 -1.361,-0.948 -2.14,-1.3 -0.779,-0.354 -1.521,-0.589 -2.228,-0.706 -0.882,-0.177 -1.779,-0.244 -2.69,-0.199 -0.912,0.044 -1.795,0.184 -2.647,0.419 -1.882,0.588 -3.441,1.624 -4.676,3.11 -1.235,1.484 -2.103,3.145 -2.603,4.98 -0.47,1.719 -0.603,3.535 -0.396,5.448 0.205,1.914 0.794,3.665 1.764,5.253 0.676,1.03 1.485,1.949 2.426,2.757 0.941,0.809 2.073,1.419 3.397,1.831" /></g><g
           transform="translate(897.8583,440.3068)"
           id="g134"><path
             id="path136"
             style="fill:#fef5ef;fill-opacity:1;fill-rule:nonzero;stroke:none"
             d="m 0,0 c 1.176,0.646 2.367,1.08 3.573,1.301 1.205,0.22 2.367,0.22 3.485,0 1.117,-0.221 2.154,-0.661 3.11,-1.323 0.955,-0.663 1.764,-1.53 2.426,-2.603 0.662,-1.074 1.147,-2.375 1.456,-3.904 0.308,-1.53 0.375,-3.264 0.198,-5.205 l -0.397,-8.293 c -0.059,-0.383 -0.176,-0.721 -0.353,-1.015 -0.147,-0.235 -0.375,-0.463 -0.684,-0.684 -0.308,-0.22 -0.713,-0.331 -1.212,-0.331 -0.53,-0.028 -1.075,-0.044 -1.633,-0.044 -0.559,0 -1.066,0.075 -1.522,0.221 -0.456,0.147 -0.845,0.404 -1.169,0.772 -0.323,0.368 -0.514,0.904 -0.573,1.61 0,1.382 0.066,2.742 0.198,4.08 0.133,1.338 0.243,2.713 0.331,4.125 0.147,1.5 0.059,2.713 -0.264,3.639 C 6.646,-6.728 6.212,-6.059 5.668,-5.646 5.124,-5.235 4.521,-5.059 3.86,-5.117 3.198,-5.177 2.573,-5.456 1.985,-5.955 1.396,-6.456 0.911,-7.154 0.529,-8.051 c -0.383,-0.897 -0.544,-1.963 -0.485,-3.198 0.088,-2.853 0.221,-5.632 0.397,-8.337 0,-0.56 -0.184,-1.052 -0.551,-1.477 -0.369,-0.427 -0.846,-0.684 -1.434,-0.773 -0.529,-0.088 -1.066,-0.169 -1.61,-0.242 -0.544,-0.073 -1.052,-0.059 -1.522,0.044 -0.47,0.103 -0.889,0.308 -1.257,0.617 -0.368,0.309 -0.611,0.801 -0.728,1.479 -0.324,4.645 -0.471,9.358 -0.441,14.137 0.029,4.779 0.221,9.594 0.574,14.447 0.028,0.323 0.08,0.631 0.154,0.926 0.073,0.293 0.19,0.558 0.353,0.794 0.161,0.235 0.381,0.419 0.662,0.551 0.278,0.133 0.639,0.199 1.08,0.199 0.382,-0.03 0.845,-0.059 1.389,-0.089 0.544,-0.029 1.059,-0.088 1.544,-0.175 0.486,-0.089 0.897,-0.229 1.236,-0.42 C 0.228,10.24 0.397,9.969 0.397,9.616 0.191,6.41 0.059,3.204 0,0" /></g><g
           transform="translate(926.5751,435.8956)"
           id="g138"><path
             id="path140"
             style="fill:#fef5ef;fill-opacity:1;fill-rule:nonzero;stroke:none"
             d="m 0,0 c -0.677,0 -1.301,-0.148 -1.875,-0.441 -0.573,-0.295 -1.066,-0.7 -1.478,-1.213 -0.412,-0.516 -0.743,-1.111 -0.992,-1.787 -0.25,-0.677 -0.375,-1.397 -0.375,-2.162 0,-0.765 0.125,-1.493 0.375,-2.183 0.249,-0.692 0.58,-1.287 0.992,-1.786 0.412,-0.501 0.905,-0.898 1.478,-1.192 0.574,-0.294 1.198,-0.441 1.875,-0.441 0.646,0 1.264,0.147 1.853,0.441 0.587,0.294 1.095,0.691 1.522,1.192 0.426,0.499 0.764,1.094 1.014,1.786 0.25,0.69 0.375,1.418 0.375,2.183 0,0.765 -0.125,1.485 -0.375,2.162 C 4.139,-2.765 3.801,-2.17 3.375,-1.654 2.948,-1.141 2.44,-0.736 1.853,-0.441 1.264,-0.148 0.646,0 0,0 m 0,-17.777 c -1.529,0 -2.963,0.323 -4.301,0.97 -1.339,0.647 -2.508,1.522 -3.507,2.624 -1,1.103 -1.794,2.389 -2.381,3.861 -0.589,1.469 -0.883,3.043 -0.883,4.719 0,1.676 0.294,3.249 0.883,4.72 0.587,1.471 1.381,2.757 2.381,3.861 0.999,1.102 2.168,1.969 3.507,2.602 1.338,0.632 2.772,0.948 4.301,0.948 1.529,0 2.962,-0.316 4.301,-0.948 1.338,-0.633 2.507,-1.5 3.507,-2.602 0.999,-1.104 1.794,-2.39 2.382,-3.861 0.588,-1.471 0.882,-3.044 0.882,-4.72 0,-1.676 -0.294,-3.25 -0.882,-4.719 -0.588,-1.472 -1.383,-2.758 -2.382,-3.861 -1,-1.102 -2.169,-1.977 -3.507,-2.624 -1.339,-0.647 -2.772,-0.97 -4.301,-0.97" /></g><g
           transform="translate(962.9228,441.4093)"
           id="g142"><path
             id="path144"
             style="fill:#fef5ef;fill-opacity:1;fill-rule:nonzero;stroke:none"
             d="m 0,0 c -0.294,-3.589 -0.484,-7.161 -0.573,-10.72 -0.088,-3.558 -0.088,-7.145 0,-10.762 -0.03,-0.265 -0.118,-0.501 -0.265,-0.706 -0.147,-0.177 -0.368,-0.361 -0.661,-0.552 -0.295,-0.192 -0.691,-0.316 -1.191,-0.375 -0.471,-0.059 -0.964,-0.103 -1.478,-0.132 -0.516,-0.029 -1,-0.007 -1.456,0.066 -0.456,0.074 -0.86,0.213 -1.213,0.419 -0.352,0.205 -0.589,0.514 -0.706,0.926 -2.265,-1.146 -4.271,-1.572 -6.021,-1.279 -1.75,0.294 -3.228,1.044 -4.433,2.25 -1.206,1.206 -2.125,2.719 -2.757,4.544 -0.633,1.823 -0.964,3.705 -0.993,5.646 -0.029,1.705 0.029,3.425 0.177,5.161 0.147,1.735 0.425,3.469 0.838,5.205 0.088,0.441 0.279,0.809 0.573,1.103 0.294,0.294 0.691,0.426 1.191,0.396 0.412,-0.029 0.889,-0.073 1.434,-0.131 0.544,-0.06 1.051,-0.155 1.522,-0.288 0.47,-0.131 0.867,-0.316 1.191,-0.55 0.323,-0.237 0.47,-0.56 0.441,-0.971 -0.236,-1.295 -0.419,-2.603 -0.552,-3.926 -0.131,-1.323 -0.198,-2.706 -0.198,-4.146 0,-1.942 0.228,-3.523 0.684,-4.742 0.456,-1.221 1.014,-2.067 1.676,-2.537 0.662,-0.47 1.36,-0.537 2.095,-0.199 0.736,0.338 1.397,1.096 1.986,2.273 0.558,1.117 0.962,2.256 1.212,3.418 0.25,1.162 0.426,2.344 0.53,3.551 0.102,1.205 0.169,2.418 0.198,3.639 0.029,1.22 0.117,2.448 0.265,3.684 0.029,0.205 0.117,0.381 0.265,0.529 0.264,0.323 0.779,0.47 1.543,0.441 0.383,-0.03 0.846,-0.059 1.39,-0.089 C -2.742,1.117 -2.228,1.059 -1.742,0.971 -1.257,0.882 -0.846,0.765 -0.507,0.617 -0.169,0.47 0,0.265 0,0" /></g><g
           transform="translate(979.5536,436.1154)"
           id="g146"><path
             id="path148"
             style="fill:#fef5ef;fill-opacity:1;fill-rule:nonzero;stroke:none"
             d="M 0,0 C 0,0.735 -0.185,1.331 -0.552,1.787 -0.92,2.242 -1.361,2.581 -1.875,2.802 -2.39,3.022 -2.934,3.14 -3.508,3.154 -4.08,3.169 -4.559,3.103 -4.941,2.956 -5.441,2.779 -5.765,2.559 -5.911,2.294 -6.059,2.029 -6.088,1.757 -6,1.479 c 0.089,-0.281 0.25,-0.545 0.485,-0.794 0.236,-0.251 0.5,-0.45 0.794,-0.596 0.354,-0.177 0.75,-0.36 1.192,-0.552 0.441,-0.191 0.867,-0.36 1.279,-0.507 0.411,-0.147 0.779,-0.287 1.103,-0.42 0.323,-0.131 0.573,-0.242 0.75,-0.33 1.175,-0.529 2.212,-1.199 3.11,-2.008 0.896,-0.808 1.595,-1.742 2.095,-2.8 0.469,-1.03 0.713,-2.044 0.727,-3.044 0.016,-1 -0.146,-1.949 -0.484,-2.845 -0.339,-0.897 -0.832,-1.721 -1.479,-2.471 -0.646,-0.75 -1.382,-1.389 -2.205,-1.919 -1.029,-0.646 -2.11,-1.08 -3.242,-1.3 -1.133,-0.221 -2.243,-0.25 -3.33,-0.088 -1.089,0.161 -2.14,0.5 -3.154,1.013 -1.015,0.515 -1.934,1.184 -2.757,2.008 -0.53,0.529 -0.948,1.125 -1.258,1.786 -0.309,0.662 -0.492,1.338 -0.551,2.03 -0.059,0.69 0,1.374 0.177,2.05 0.176,0.677 0.514,1.28 1.014,1.809 0.088,0.147 0.206,0.265 0.353,0.353 0.411,0.353 0.845,0.486 1.301,0.397 0.456,-0.088 0.787,-0.456 0.992,-1.103 0.442,-1.235 1.11,-2.25 2.008,-3.044 0.896,-0.793 1.977,-1.22 3.242,-1.279 0.411,-0.029 0.809,0.023 1.192,0.154 0.38,0.133 0.705,0.324 0.969,0.575 0.265,0.249 0.448,0.565 0.552,0.948 0.103,0.382 0.066,0.823 -0.11,1.323 -0.177,0.529 -0.567,0.985 -1.169,1.367 -0.604,0.382 -1.273,0.713 -2.008,0.994 -0.734,0.278 -1.471,0.536 -2.205,0.771 -0.736,0.235 -1.323,0.456 -1.765,0.662 -1.118,0.529 -2.11,1.183 -2.977,1.963 -0.868,0.778 -1.419,1.815 -1.655,3.109 -0.175,1.03 -0.109,2.066 0.2,3.111 0.308,1.043 0.83,1.947 1.565,2.713 0.559,0.557 1.184,1.028 1.875,1.411 0.69,0.382 1.396,0.683 2.117,0.904 0.721,0.221 1.434,0.367 2.14,0.441 0.705,0.074 1.352,0.111 1.941,0.111 1.087,0 2.139,-0.154 3.154,-0.464 C 0.992,7.609 1.889,7.169 2.668,6.595 3.447,6.021 4.064,5.322 4.521,4.5 4.977,3.676 5.189,2.735 5.16,1.677 5.16,1.265 5.043,0.89 4.808,0.552 4.572,0.213 4.264,-0.081 3.882,-0.33 3.499,-0.581 3.072,-0.765 2.603,-0.882 2.132,-1 1.632,-1.059 1.103,-1.059 0.778,-1.059 0.514,-0.985 0.309,-0.838 0.103,-0.691 0,-0.412 0,0" /></g><g
           transform="translate(996.7128,434.6163)"
           id="g150"><path
             id="path152"
             style="fill:#fef5ef;fill-opacity:1;fill-rule:nonzero;stroke:none"
             d="M 0,0 C 2.088,0 4.19,0.044 6.308,0.132 6.16,1.103 5.815,1.801 5.271,2.228 4.727,2.653 4.124,2.837 3.463,2.778 2.801,2.72 2.146,2.448 1.5,1.963 0.853,1.478 0.353,0.822 0,0 M -0.132,7.366 C 1.661,7.896 3.374,8.021 5.007,7.741 6.639,7.461 8.05,6.859 9.241,5.933 10.433,5.006 11.351,3.771 11.998,2.228 12.645,0.684 12.865,-1.074 12.66,-3.044 12.601,-3.427 12.498,-3.75 12.352,-4.015 12.204,-4.279 11.969,-4.441 11.646,-4.5 11.498,-4.56 11.189,-4.604 10.72,-4.633 10.248,-4.662 9.683,-4.677 9.021,-4.677 c -0.662,0 -1.389,0.007 -2.184,0.022 -0.794,0.014 -1.588,0.037 -2.382,0.067 -1.088,0.059 -2.102,0.103 -3.044,0.132 -0.941,0.029 -1.705,0.073 -2.293,0.133 -0.03,-0.712 0.022,-1.408 0.154,-2.089 0.132,-0.682 0.36,-1.297 0.684,-1.845 0.323,-0.548 0.75,-0.999 1.279,-1.355 0.53,-0.356 1.191,-0.563 1.985,-0.622 0.618,-0.06 1.235,0.059 1.853,0.355 0.617,0.297 1.176,0.801 1.676,1.512 0.382,0.593 0.867,0.948 1.456,1.067 0.588,0.118 1.161,0.066 1.72,-0.156 0.558,-0.222 1.029,-0.585 1.412,-1.089 0.382,-0.504 0.573,-1.081 0.573,-1.733 0,-0.794 -0.214,-1.523 -0.639,-2.184 -0.427,-0.662 -0.964,-1.25 -1.611,-1.765 -0.647,-0.514 -1.36,-0.948 -2.139,-1.3 -0.78,-0.354 -1.522,-0.589 -2.227,-0.706 -0.883,-0.177 -1.78,-0.244 -2.691,-0.199 -0.913,0.044 -1.794,0.184 -2.647,0.419 -1.883,0.588 -3.441,1.624 -4.676,3.11 -1.235,1.484 -2.103,3.145 -2.602,4.98 -0.472,1.719 -0.604,3.535 -0.398,5.448 0.205,1.914 0.794,3.665 1.765,5.253 0.676,1.03 1.484,1.949 2.426,2.757 0.941,0.809 2.073,1.419 3.397,1.831" /></g><g
           transform="translate(697.3511,445.999)"
           id="g154"><path
             id="path156"
             style="fill:#fef5ef;fill-opacity:1;fill-rule:nonzero;stroke:none"
             d="m 0,0 c -8.413,6.958 -11.164,11.65 -17.312,21.52 -4.693,8.9 -10.356,22.33 -14.563,34.464 l -2.751,-3.398 c 1.618,-19.092 1.78,-12.297 2.428,-36.566 -11.327,-1.781 -17.799,-1.457 -26.536,-0.81 -0.648,20.711 0.161,7.767 -0.971,20.388 -1.133,13.753 -2.913,32.199 -5.34,55.66 -2.589,25.403 -5.501,49.998 -7.119,72.326 6.472,2.912 11.811,4.207 16.18,4.207 1.78,0 6.149,0.647 13.591,-0.809 0,0 -0.808,-8.576 -0.808,-16.18 1.618,-20.55 3.722,-36.892 5.501,-57.279 0.162,-3.56 0.485,-6.958 0.809,-10.193 3.075,3.235 6.634,7.442 11.65,13.753 l 17.96,22.976 C 0,114.396 5.663,109.38 14.563,98.054 c 0,0 -12.945,-9.708 -16.504,-13.592 -5.34,-5.339 -9.223,-7.767 -12.945,-13.43 1.618,-3.397 3.884,-7.604 5.987,-12.62 C -3.235,48.541 -0.809,41.26 6.148,31.553 13.269,21.358 18.932,19.255 25.565,21.358 L 27.507,0.486 C 14.401,-3.074 0,0 0,0" /></g><g
           transform="translate(751.8775,512.0156)"
           id="g158"><path
             id="path160"
             style="fill:#fef5ef;fill-opacity:1;fill-rule:nonzero;stroke:none"
             d="m 0,0 c -3.398,0 -5.987,-9.547 -5.987,-14.077 0,-6.957 1.942,-10.031 4.854,-10.031 3.884,0 9.547,1.941 11.003,6.795 L 9.708,-4.854 8.414,-3.56 C 5.825,-0.972 2.266,0 0,0 m 36.244,-46.276 c -7.766,-4.854 -14.4,-6.311 -20.225,-5.825 -2.913,3.236 -4.37,14.077 -4.37,14.077 -3.559,-1.295 -11.002,-5.016 -15.047,-5.016 -16.665,0 -30.905,8.09 -30.905,25.889 0,3.074 0.324,5.986 1.133,8.898 1.941,7.12 6.149,14.239 12.135,19.256 5.502,4.53 12.459,6.633 20.55,6.633 3.074,0 7.119,-0.647 9.87,-1.294 v 4.207 L 9.061,27.507 C 7.929,34.464 6.634,33.979 3.397,33.169 1.941,32.847 -6.958,30.257 -8.576,29.448 c -3.236,-1.941 -7.443,-3.883 -11.487,-7.766 -3.075,2.103 -4.532,7.119 -5.988,12.459 -0.97,3.397 -0.97,10.032 -0.162,12.459 9.224,6.471 19.094,9.708 29.935,9.708 5.177,0 9.708,-0.809 13.429,-2.266 9.061,-2.75 15.534,-8.575 17.96,-16.827 1.618,-4.855 2.266,-11.488 2.266,-19.579 0,-3.883 -0.324,-8.899 -0.324,-13.43 -0.161,-7.119 -0.161,-10.355 -0.161,-14.076 0,-16.342 1.618,-25.727 5.986,-29.125 0,0 -3.398,-5.34 -6.634,-7.281" /></g><g
           transform="translate(901.8677,509.5888)"
           id="g162"><path
             id="path164"
             style="fill:#fef5ef;fill-opacity:1;fill-rule:nonzero;stroke:none"
             d="m 0,0 c -1.941,-6.635 -8.091,-24.109 -14.077,-40.938 l -14.563,-4.207 -9.546,19.903 c -3.398,7.281 -8.738,15.21 -11.327,19.255 l -0.323,0.323 c -6.31,-9.061 -16.666,-28.639 -22.491,-38.348 l -13.106,0.81 -9.708,41.583 c -3.398,13.106 -7.443,21.681 -13.43,34.789 3.236,2.265 7.766,5.016 10.194,6.633 2.912,1.457 8.414,2.913 16.666,5.34 2.75,-12.622 3.398,-16.666 9.708,-43.364 l 0.161,0.325 19.417,36.405 c 3.884,0.485 8.252,0.97 11.003,0.647 L -24.109,0.484 c 2.427,8.091 4.531,19.903 7.766,34.141 0.81,3.884 1.133,9.062 1.133,11.65 9.385,1.133 20.064,-2.265 25.727,-5.015 L 9.061,33.816 C 7.442,26.859 4.692,15.209 0,0" /></g><g
           transform="translate(948.6255,510.3974)"
           id="g166"><path
             id="path168"
             style="fill:#fef5ef;fill-opacity:1;fill-rule:nonzero;stroke:none"
             d="m 0,0 c -3.397,0 -7.767,-2.589 -7.767,-11.974 0,-6.958 3.884,-10.516 6.796,-10.516 3.722,0 9.385,1.941 11.003,6.795 L 9.708,-4.854 8.414,-3.56 C 5.825,-0.971 2.266,0 0,0 m 32.199,-42.879 c -4.53,-3.074 -11.811,-3.235 -17.636,-2.75 -2.913,3.236 -2.913,10.841 -2.913,10.841 -3.236,-2.427 -10.355,-6.958 -18.284,-6.796 -12.459,0.324 -27.183,8.09 -27.183,25.889 0,10.679 4.692,19.74 12.783,26.697 5.501,4.531 12.459,6.635 20.549,6.635 3.074,0 7.119,-0.648 9.87,-1.295 -0.162,8.414 -0.324,10.842 -0.324,11.165 -0.971,6.958 -6.634,8.252 -9.87,7.442 -8.899,-2.103 -13.268,-5.015 -17.798,-11.326 -3.075,2.104 -5.016,3.884 -7.282,8.899 -2.426,4.855 -2.589,8.415 -2.589,11.166 9.223,6.471 21.52,11.001 32.2,11.001 12.944,0 27.992,-5.986 31.551,-19.092 1.456,-4.855 2.104,-9.87 2.104,-17.96 0,-3.883 -0.324,-8.9 -0.324,-13.43 -0.161,-7.119 -0.161,-10.355 -0.161,-14.077 0,-16.343 0.647,-22.329 5.015,-25.728 0,0 -6.634,-5.177 -9.708,-7.281" /></g><g
           transform="translate(1067.8735,445.999)"
           id="g170"><path
             id="path172"
             style="fill:#f5b14a;fill-opacity:1;fill-rule:nonzero;stroke:none"
             d="m 0,0 c -8.413,6.958 -11.164,11.65 -17.312,21.52 -4.693,8.9 -10.356,22.33 -14.563,34.464 l -2.751,-3.398 c 1.618,-19.092 1.78,-12.297 2.427,-36.566 -11.326,-1.781 -17.798,-1.457 -26.535,-0.81 -0.648,20.711 0.161,7.767 -0.971,20.388 -1.133,13.753 -2.913,32.199 -5.34,55.66 -2.589,25.403 -5.501,49.998 -7.119,72.326 6.472,2.912 11.812,4.207 16.18,4.207 1.78,0 6.149,0.647 13.591,-0.809 0,0 -0.808,-8.576 -0.808,-16.18 1.618,-20.55 3.722,-36.892 5.501,-57.279 0.162,-3.56 0.485,-6.958 0.809,-10.193 3.075,3.235 6.634,7.442 11.65,13.753 l 17.96,22.976 C 0,114.396 5.663,109.38 14.563,98.054 c 0,0 -12.945,-9.708 -16.504,-13.592 -5.34,-5.339 -9.223,-7.767 -12.945,-13.43 1.618,-3.397 3.884,-7.604 5.988,-12.62 C -3.235,48.541 -0.809,41.26 6.148,31.553 13.269,21.358 18.932,19.255 25.565,21.358 L 27.507,0.486 C 14.4,-3.074 0,0 0,0" /></g><g
           transform="translate(1112.6909,464.9306)"
           id="g174"><path
             id="path176"
             style="fill:#f5b14a;fill-opacity:1;fill-rule:nonzero;stroke:none"
             d="m 0,0 c -1.942,0 -4.207,0 -13.43,1.617 -0.809,16.666 -3.236,48.865 -6.472,78.637 8.737,2.752 17.96,3.884 27.344,2.59 L 8.575,72.65 8.413,72.974 C 8.898,70.061 9.708,58.088 11.002,43.525 11.649,36.406 13.105,21.034 13.915,2.266 13.915,2.266 4.692,0.323 0,0 m -7.281,95.465 c -7.606,0 -16.181,6.148 -16.181,14.238 0,8.09 8.252,14.076 16.181,14.076 8.575,0 15.533,-5.986 16.179,-14.076 C 8.413,101.289 1.132,95.465 -7.281,95.465" /></g><g
           transform="translate(1181.1333,528.5195)"
           id="g178"><path
             id="path180"
             style="fill:#f5b14a;fill-opacity:1;fill-rule:nonzero;stroke:none"
             d="m 0,0 c -0.324,4.692 -0.162,7.604 -1.457,11.165 -1.456,3.559 -3.397,4.691 -6.148,4.691 -2.265,0.163 -6.472,-2.912 -8.414,-8.252 C -17.313,3.722 -17.961,0 -17.961,-3.074 -12.136,-1.942 -6.148,-1.133 0,0 m 9.708,-38.024 c 1.779,0 8.737,0.97 18.284,2.265 -1.295,-11.164 -4.854,-21.358 -10.68,-30.904 L 5.824,-64.56 c -7.766,1.294 -15.694,3.398 -21.843,6.634 h 0.162 c -10.679,5.178 -17.798,11.326 -21.844,18.769 -5.501,10.032 -7.767,20.55 -7.767,31.228 0,6.311 1.295,13.592 3.561,19.416 7.442,17.961 19.901,27.669 36.082,26.537 H -5.987 C 18.769,36.567 30.904,18.769 30.257,-15.21 l -45.79,-8.252 c 4.045,-10.193 12.297,-14.562 25.241,-14.562" /></g><g
           transform="translate(1258.311,529.0048)"
           id="g182"><path
             id="path184"
             style="fill:#f5b14a;fill-opacity:1;fill-rule:nonzero;stroke:none"
             d="m 0,0 c 14.239,-4.854 32.361,-11.164 32.361,-33.979 0,-18.607 -15.371,-31.552 -36.567,-31.552 -30.258,0 -35.112,16.666 -34.465,40.451 l 27.345,-1.941 c -2.104,-6.796 -0.647,-11.165 -0.323,-12.945 0.323,-2.103 2.588,-4.692 6.633,-4.692 5.663,0 10.033,5.34 10.033,11.65 0,7.928 -7.767,10.518 -15.372,13.268 -13.916,4.853 -27.992,10.031 -28.154,26.213 -0.323,21.519 20.388,28.638 37.215,28.638 15.533,0 29.125,-1.456 30.096,-31.066 L 9.062,2.589 C 8.576,11.164 3.722,15.209 0.162,15.371 -5.824,15.533 -10.841,11.164 -10.517,6.473 -10.031,3.236 -6.31,2.104 0,0" /></g></g></g></g></svg>